# Blender v3.5.1 OBJ File: 'map-1.blend'
# www.blender.org
mtllib map-1.mtl
o BezierCurve
v -1.000000 0.000000 0.000000
v -0.836294 0.000000 -0.035118
v -0.685607 0.000000 -0.056271
v -0.544027 0.000000 -0.065539
v -0.407642 0.000000 -0.065001
v -0.272540 0.000000 -0.056738
v -0.134810 0.000000 -0.042829
v 0.009460 0.000000 -0.025354
v 0.164182 0.000000 -0.006392
v 0.333267 0.000000 0.011976
v 0.520628 0.000000 0.027671
v 0.730176 0.000000 0.038613
v 0.965823 0.000000 0.042722
v 1.197546 0.000000 0.011252
v 1.392437 0.000000 -0.076251
v 1.550075 0.000000 -0.209421
v 1.670041 0.000000 -0.377896
v 1.751917 0.000000 -0.571311
v 1.795281 0.000000 -0.779303
v 1.799715 0.000000 -0.991508
v 1.764799 0.000000 -1.197561
v 1.690114 0.000000 -1.387099
v 1.575239 0.000000 -1.549758
v 1.419756 0.000000 -1.675175
v 1.223245 0.000000 -1.752986
v 1.017235 0.000000 -1.779928
v 0.829723 0.000000 -1.766243
v 0.654991 0.000000 -1.721821
v 0.487322 0.000000 -1.656552
v 0.320998 0.000000 -1.580326
v 0.150301 0.000000 -1.503033
v -0.030486 0.000000 -1.434563
v -0.227082 0.000000 -1.384806
v -0.445204 0.000000 -1.363652
v -0.690570 0.000000 -1.380991
v -0.968897 0.000000 -1.446714
v -1.285903 0.000000 -1.570709
v -1.368722 0.000000 -1.601392
v -1.455189 0.000000 -1.619079
v -1.543419 0.000000 -1.623725
v -1.631527 0.000000 -1.615290
v -1.717626 0.000000 -1.593730
v -1.799832 0.000000 -1.559001
v -1.876260 0.000000 -1.511062
v -1.945023 0.000000 -1.449869
v -2.004238 0.000000 -1.375379
v -2.052018 0.000000 -1.287550
v -2.086478 0.000000 -1.186339
v -2.105733 0.000000 -1.071702
v -2.115617 0.000000 -0.921704
v -2.116453 0.000000 -0.791904
v -2.108838 0.000000 -0.680182
v -2.093371 0.000000 -0.584415
v -2.070649 0.000000 -0.502483
v -2.041270 0.000000 -0.432264
v -2.005833 0.000000 -0.371636
v -1.964934 0.000000 -0.318479
v -1.919172 0.000000 -0.270670
v -1.869144 0.000000 -0.226090
v -1.815449 0.000000 -0.182615
v -1.758683 0.000000 -0.138126
v -1.725001 0.000000 -0.111494
v -1.689022 0.000000 -0.083991
v -1.649824 0.000000 -0.056704
v -1.606486 0.000000 -0.030718
v -1.558083 0.000000 -0.007120
v -1.503695 0.000000 0.013005
v -1.442398 0.000000 0.028571
v -1.373270 0.000000 0.038492
v -1.295388 0.000000 0.041681
v -1.207831 0.000000 0.037053
v -1.109676 0.000000 0.023521
l 1 2
l 2 3
l 3 4
l 4 5
l 5 6
l 6 7
l 7 8
l 8 9
l 9 10
l 10 11
l 11 12
l 12 13
l 13 14
l 14 15
l 15 16
l 16 17
l 17 18
l 18 19
l 19 20
l 20 21
l 21 22
l 22 23
l 23 24
l 24 25
l 25 26
l 26 27
l 27 28
l 28 29
l 29 30
l 30 31
l 31 32
l 32 33
l 33 34
l 34 35
l 35 36
l 36 37
l 37 38
l 38 39
l 39 40
l 40 41
l 41 42
l 42 43
l 43 44
l 44 45
l 45 46
l 46 47
l 47 48
l 48 49
l 49 50
l 50 51
l 51 52
l 52 53
l 53 54
l 54 55
l 55 56
l 56 57
l 57 58
l 58 59
l 59 60
l 60 61
l 61 62
l 62 63
l 63 64
l 64 65
l 65 66
l 66 67
l 67 68
l 68 69
l 69 70
l 70 71
l 71 72
l 72 1
o Plane
v -1.960713 0.000000 -0.079916
v -1.760461 0.000000 0.074907
v -1.741733 0.000000 -0.343244
v -1.568459 -0.000000 -0.208692
v -1.760461 0.000000 0.074907
v -1.484611 -0.000000 0.194378
v -1.568459 -0.000000 -0.208692
v -1.414030 0.000000 -0.140752
v -1.484611 -0.000000 0.194378
v -1.198985 0.000000 0.207955
v -1.414030 0.000000 -0.140752
v -1.229259 0.000000 -0.133185
v -1.198985 0.000000 0.207955
v -0.946425 0.000000 0.163642
v -1.229259 0.000000 -0.133185
v -1.016903 0.000000 -0.171509
v -0.946425 0.000000 0.163642
v -0.726746 -0.000000 0.122421
v -1.016903 0.000000 -0.171509
v -0.772286 0.000000 -0.217019
v -0.726746 -0.000000 0.122421
v -0.511253 0.000000 0.105796
v -0.772286 0.000000 -0.217019
v -0.517026 0.000000 -0.236637
v -0.511253 0.000000 0.105796
v -0.291571 -0.000000 0.113632
v -0.517026 0.000000 -0.236637
v -0.264583 0.000000 -0.227785
v -0.291571 -0.000000 0.113632
v -0.063202 0.000000 0.138336
v -0.264582 0.000000 -0.227785
v -0.023101 0.000000 -0.201789
v -0.063202 -0.000000 0.138336
v 0.172316 -0.000000 0.166738
v -0.023101 0.000000 -0.201789
v 0.210587 0.000000 -0.173598
v 0.172316 -0.000000 0.166738
v 0.412582 -0.000000 0.190460
v 0.210588 0.000000 -0.173598
v 0.440611 0.000000 -0.150873
v 0.412582 -0.000000 0.190460
v 0.654591 0.000000 0.206136
v 0.440611 0.000000 -0.150872
v 0.670169 0.000000 -0.135991
v 0.654591 0.000000 0.206136
v 0.904058 -0.000000 0.212702
v 0.670169 0.000000 -0.135991
v 0.893078 0.000000 -0.129603
v 0.904058 -0.000000 0.212702
v 1.170295 -0.000000 0.187176
v 0.893078 0.000000 -0.129603
v 1.096357 0.000000 -0.147229
v 1.170295 -0.000000 0.187176
v 1.436974 -0.000000 0.090802
v 1.096357 0.000000 -0.147229
v 1.271019 0.000000 -0.208785
v 1.436974 -0.000000 0.090802
v 1.664917 -0.000000 -0.083618
v 1.271019 0.000000 -0.208785
v 1.416607 0.000000 -0.319490
v 1.664917 -0.000000 -0.083618
v 1.827663 0.000000 -0.312838
v 1.416607 0.000000 -0.319490
v 1.525901 -0.000000 -0.474804
v 1.827663 0.000000 -0.312838
v 1.926113 -0.000000 -0.569264
v 1.525901 -0.000000 -0.474804
v 1.595504 0.000000 -0.658659
v 1.926113 -0.000000 -0.569264
v 1.967681 0.000000 -0.837467
v 1.595504 0.000000 -0.658659
v 1.625697 0.000000 -0.855927
v 1.967681 0.000000 -0.837467
v 1.953482 0.000000 -1.108999
v 1.625697 0.000000 -0.855927
v 1.615386 0.000000 -1.054372
v 1.953482 0.000000 -1.108999
v 1.878848 -0.000000 -1.375058
v 1.615386 0.000000 -1.054372
v 1.563660 0.000000 -1.241082
v 1.878848 -0.000000 -1.375058
v 1.734703 -0.000000 -1.619935
v 1.563660 0.000000 -1.241082
v 1.470890 0.000000 -1.401540
v 1.734703 -0.000000 -1.619935
v 1.517145 -0.000000 -1.814634
v 1.470890 0.000000 -1.401540
v 1.339842 0.000000 -1.521620
v 1.517145 -0.000000 -1.814634
v 1.250120 -0.000000 -1.921152
v 1.339842 0.000000 -1.521620
v 1.169153 0.000000 -1.588379
v 1.250120 -0.000000 -1.921152
v 0.972683 -0.000000 -1.948075
v 1.169153 0.000000 -1.588379
v 0.977479 0.000000 -1.605628
v 0.972683 -0.000000 -1.948075
v 0.701940 -0.000000 -1.910430
v 0.977479 0.000000 -1.605628
v 0.781965 0.000000 -1.577429
v 0.701941 0.000000 -1.910430
v 0.454289 0.000000 -1.827437
v 0.781966 0.000000 -1.577429
v 0.582507 0.000000 -1.509862
v 0.454290 -0.000000 -1.827437
v 0.232353 -0.000000 -1.728165
v 0.582508 0.000000 -1.509862
v 0.373206 0.000000 -1.415989
v 0.232354 -0.000000 -1.728165
v 0.025200 -0.000000 -1.638764
v 0.373206 0.000000 -1.415989
v 0.146490 0.000000 -1.318479
v 0.025201 -0.000000 -1.638764
v -0.178306 -0.000000 -1.573768
v 0.146491 0.000000 -1.318480
v -0.099646 0.000000 -1.240442
v -0.178306 -0.000000 -1.573768
v -0.383226 -0.000000 -1.541629
v -0.099646 0.000000 -1.240442
v -0.360423 0.000000 -1.199908
v -0.383226 -0.000000 -1.541629
v -0.591049 0.000000 -1.545573
v -0.360423 0.000000 -1.199908
v -0.623713 -0.000000 -1.204653
v -0.591049 0.000000 -1.545573
v -0.800009 -0.000000 -1.582784
v -0.623713 -0.000000 -1.204653
v -0.878766 0.000000 -1.249481
v -0.800008 0.000000 -1.582784
v -1.011008 0.000000 -1.646813
v -0.878765 -0.000000 -1.249481
v -1.119069 -0.000000 -1.321826
v -1.011008 -0.000000 -1.646812
v -1.224197 0.000000 -1.730440
v -1.119068 0.000000 -1.321826
v -1.346020 -0.000000 -1.410358
v -1.224196 0.000000 -1.730440
v -1.509161 0.000000 -1.793348
v -1.346019 -0.000000 -1.410357
v -1.518805 -0.000000 -1.451002
v -1.509159 -0.000000 -1.793348
v -1.807528 -0.000000 -1.741586
v -1.518805 0.000000 -1.451002
v -1.682186 0.000000 -1.422865
v -1.807526 -0.000000 -1.741587
v -2.063982 0.000000 -1.572581
v -1.682185 0.000000 -1.422866
v -1.817635 -0.000000 -1.334659
v -2.063981 0.000000 -1.572582
v -2.223846 -0.000000 -1.313939
v -1.817635 -0.000000 -1.334659
v -1.903088 0.000000 -1.193908
v -2.223846 0.000000 -1.313940
v -2.279478 0.000000 -1.038566
v -1.903087 -0.000000 -1.193909
v -1.938389 -0.000000 -1.007713
v -2.279478 0.000000 -1.038566
v -2.287262 0.000000 -0.781176
v -1.938389 -0.000000 -1.007713
v -1.944983 -0.000000 -0.792959
v -2.287262 0.000000 -0.781177
v -2.250261 0.000000 -0.509400
v -1.944984 0.000000 -0.792960
v -1.919290 -0.000000 -0.597441
v -2.250261 0.000000 -0.509400
v -2.118773 0.000000 -0.237609
v -1.919290 -0.000000 -0.597441
v -1.847642 0.000000 -0.446849
vt 0.000000 0.000000
vt 1.000000 0.000000
vt 1.000000 1.000000
vt 0.000000 1.000000
vt 0.000000 0.000000
vt 1.000000 0.000000
vt 1.000000 1.000000
vt 0.000000 1.000000
vt 0.000000 0.000000
vt 1.000000 0.000000
vt 1.000000 1.000000
vt 0.000000 1.000000
vt 0.000000 0.000000
vt 1.000000 0.000000
vt 1.000000 1.000000
vt 0.000000 1.000000
vt 0.000000 0.000000
vt 1.000000 0.000000
vt 1.000000 1.000000
vt 0.000000 1.000000
vt 0.000000 0.000000
vt 1.000000 0.000000
vt 1.000000 1.000000
vt 0.000000 1.000000
vt 0.000000 0.000000
vt 1.000000 0.000000
vt 1.000000 1.000000
vt 0.000000 1.000000
vt 0.000000 0.000000
vt 1.000000 0.000000
vt 1.000000 1.000000
vt 0.000000 1.000000
vt 0.000000 0.000000
vt 1.000000 0.000000
vt 1.000000 1.000000
vt 0.000000 1.000000
vt 0.000000 0.000000
vt 1.000000 0.000000
vt 1.000000 1.000000
vt 0.000000 1.000000
vt 0.000000 0.000000
vt 1.000000 0.000000
vt 1.000000 1.000000
vt 0.000000 1.000000
vt 0.000000 0.000000
vt 1.000000 0.000000
vt 1.000000 1.000000
vt 0.000000 1.000000
vt 0.000000 0.000000
vt 1.000000 0.000000
vt 1.000000 1.000000
vt 0.000000 1.000000
vt 0.000000 0.000000
vt 1.000000 0.000000
vt 1.000000 1.000000
vt 0.000000 1.000000
vt 0.000000 0.000000
vt 1.000000 0.000000
vt 1.000000 1.000000
vt 0.000000 1.000000
vt 0.000000 0.000000
vt 1.000000 0.000000
vt 1.000000 1.000000
vt 0.000000 1.000000
vt 0.000000 0.000000
vt 1.000000 0.000000
vt 1.000000 1.000000
vt 0.000000 1.000000
vt 0.000000 0.000000
vt 1.000000 0.000000
vt 1.000000 1.000000
vt 0.000000 1.000000
vt 0.000000 0.000000
vt 1.000000 0.000000
vt 1.000000 1.000000
vt 0.000000 1.000000
vt 0.000000 0.000000
vt 1.000000 0.000000
vt 1.000000 1.000000
vt 0.000000 1.000000
vt 0.000000 0.000000
vt 1.000000 0.000000
vt 1.000000 1.000000
vt 0.000000 1.000000
vt 0.000000 0.000000
vt 1.000000 0.000000
vt 1.000000 1.000000
vt 0.000000 1.000000
vt 0.000000 0.000000
vt 1.000000 0.000000
vt 1.000000 1.000000
vt 0.000000 1.000000
vt 0.000000 0.000000
vt 1.000000 0.000000
vt 1.000000 1.000000
vt 0.000000 1.000000
vt 0.000000 0.000000
vt 1.000000 0.000000
vt 1.000000 1.000000
vt 0.000000 1.000000
vt 0.000000 0.000000
vt 1.000000 0.000000
vt 1.000000 1.000000
vt 0.000000 1.000000
vt 0.000000 0.000000
vt 1.000000 0.000000
vt 1.000000 1.000000
vt 0.000000 1.000000
vt 0.000000 0.000000
vt 1.000000 0.000000
vt 1.000000 1.000000
vt 0.000000 1.000000
vt 0.000000 0.000000
vt 1.000000 0.000000
vt 1.000000 1.000000
vt 0.000000 1.000000
vt 0.000000 0.000000
vt 1.000000 0.000000
vt 1.000000 1.000000
vt 0.000000 1.000000
vt 0.000000 0.000000
vt 1.000000 0.000000
vt 1.000000 1.000000
vt 0.000000 1.000000
vt 0.000000 0.000000
vt 1.000000 0.000000
vt 1.000000 1.000000
vt 0.000000 1.000000
vt 0.000000 0.000000
vt 1.000000 0.000000
vt 1.000000 1.000000
vt 0.000000 1.000000
vt 0.000000 0.000000
vt 1.000000 0.000000
vt 1.000000 1.000000
vt 0.000000 1.000000
vt 0.000000 0.000000
vt 1.000000 0.000000
vt 1.000000 1.000000
vt 0.000000 1.000000
vt 0.000000 0.000000
vt 1.000000 0.000000
vt 1.000000 1.000000
vt 0.000000 1.000000
vt 0.000000 0.000000
vt 1.000000 0.000000
vt 1.000000 1.000000
vt 0.000000 1.000000
vt 0.000000 0.000000
vt 1.000000 0.000000
vt 1.000000 1.000000
vt 0.000000 1.000000
vt 0.000000 0.000000
vt 1.000000 0.000000
vt 1.000000 1.000000
vt 0.000000 1.000000
vt 0.000000 0.000000
vt 1.000000 0.000000
vt 1.000000 1.000000
vt 0.000000 1.000000
vt 0.000000 0.000000
vt 1.000000 0.000000
vt 1.000000 1.000000
vt 0.000000 1.000000
vt 0.000000 0.000000
vt 1.000000 0.000000
vt 1.000000 1.000000
vt 0.000000 1.000000
vn 0.0000 1.0000 -0.0000
usemtl None
s off
f 73/1/1 74/2/1 76/3/1 75/4/1
f 77/5/1 78/6/1 80/7/1 79/8/1
f 81/9/1 82/10/1 84/11/1 83/12/1
f 85/13/1 86/14/1 88/15/1 87/16/1
f 89/17/1 90/18/1 92/19/1 91/20/1
f 93/21/1 94/22/1 96/23/1 95/24/1
f 97/25/1 98/26/1 100/27/1 99/28/1
f 101/29/1 102/30/1 104/31/1 103/32/1
f 105/33/1 106/34/1 108/35/1 107/36/1
f 109/37/1 110/38/1 112/39/1 111/40/1
f 113/41/1 114/42/1 116/43/1 115/44/1
f 117/45/1 118/46/1 120/47/1 119/48/1
f 121/49/1 122/50/1 124/51/1 123/52/1
f 125/53/1 126/54/1 128/55/1 127/56/1
f 129/57/1 130/58/1 132/59/1 131/60/1
f 133/61/1 134/62/1 136/63/1 135/64/1
f 137/65/1 138/66/1 140/67/1 139/68/1
f 141/69/1 142/70/1 144/71/1 143/72/1
f 145/73/1 146/74/1 148/75/1 147/76/1
f 149/77/1 150/78/1 152/79/1 151/80/1
f 153/81/1 154/82/1 156/83/1 155/84/1
f 157/85/1 158/86/1 160/87/1 159/88/1
f 161/89/1 162/90/1 164/91/1 163/92/1
f 165/93/1 166/94/1 168/95/1 167/96/1
f 169/97/1 170/98/1 172/99/1 171/100/1
f 173/101/1 174/102/1 176/103/1 175/104/1
f 177/105/1 178/106/1 180/107/1 179/108/1
f 181/109/1 182/110/1 184/111/1 183/112/1
f 185/113/1 186/114/1 188/115/1 187/116/1
f 189/117/1 190/118/1 192/119/1 191/120/1
f 193/121/1 194/122/1 196/123/1 195/124/1
f 197/125/1 198/126/1 200/127/1 199/128/1
f 201/129/1 202/130/1 204/131/1 203/132/1
f 205/133/1 206/134/1 208/135/1 207/136/1
f 209/137/1 210/138/1 212/139/1 211/140/1
f 213/141/1 214/142/1 216/143/1 215/144/1
f 217/145/1 218/146/1 220/147/1 219/148/1
f 221/149/1 222/150/1 224/151/1 223/152/1
f 225/153/1 226/154/1 228/155/1 227/156/1
f 229/157/1 230/158/1 232/159/1 231/160/1
f 233/161/1 234/162/1 236/163/1 235/164/1
f 237/165/1 238/166/1 240/167/1 239/168/1
f 75/4/1 240/167/1 238/166/1 73/1/1
